<svg xmlns="http://www.w3.org/2000/svg" viewBox="0 0 512 512" width="512" height="512" role="img" aria-label="Netheopoiesis">
  <defs>
    <linearGradient id="fondo" x1="0" y1="0" x2="1" y2="1">
      <stop offset="0%" stop-color="#0B1220"/>
      <stop offset="100%" stop-color="#131C2E"/>
    </linearGradient>
    <linearGradient id="acG" x1="0" y1="0" x2="1" y2="1">
      <stop offset="0%" stop-color="#84CC16"/>
      <stop offset="100%" stop-color="#F43F5E"/>
    </linearGradient>
    <radialGradient id="halo" cx="50%" cy="42%" r="55%">
      <stop offset="0%" stop-color="#84CC16" stop-opacity="0.28"/>
      <stop offset="100%" stop-color="#84CC16" stop-opacity="0"/>
    </radialGradient>
  </defs>
  <rect width="512" height="512" rx="96" fill="url(#fondo)"/>
  <rect width="512" height="512" rx="96" fill="url(#halo)"/>
  <rect x="4" y="4" width="504" height="504" rx="92" fill="none" stroke="url(#acG)" stroke-width="6" opacity="0.55"/>
  <g transform="translate(256,248) scale(2.6)">

    <path d="M -38 26 L -20 12 L -4 24 L 12 10 L 30 22 L 38 26 L 38 38 L -38 38 Z"
          fill="#0F172A" stroke="url(#acG)" stroke-width="3"/>
    <path d="M 0 26 L 0 -10" stroke="#84CC16" stroke-width="4" stroke-linecap="round"/>
    <path d="M 0 -2 C -20 -6 -24 -22 -22 -30 C -10 -28 -2 -16 0 -2 Z" fill="#84CC16" opacity="0.85">
    </path>
    <path d="M 0 -8 C 20 -12 24 -28 22 -36 C 10 -34 2 -22 0 -8 Z" fill="#84CC16" opacity="0.6">
    </path>
    <circle cx="-26" cy="16" r="3" fill="#F43F5E" opacity="0.8"/>
    <circle cx="24" cy="14" r="2.5" fill="#F43F5E" opacity="0.6"/>
  </g>
</svg>